<svg width="1200" height="400" xmlns="http://www.w3.org/2000/svg">
  <defs>
    <style type="text/css">
      @import url('https://fonts.googleapis.com/css2?family=Montserrat:wght@700;900&amp;display=swap');
    </style>
  </defs>
  
  <!-- Background -->
  <rect width="1200" height="400" fill="#1b262c" rx="8"/>
  
  <!-- Left Side Decorative Shapes -->
  <circle cx="30" cy="20" r="40" fill="#c184cd"/>
  
  <g transform="translate(60, 80) rotate(15) scale(0.8)">
    <rect x="-12" y="-3" width="24" height="6" rx="2" fill="#facd3d"/>
    <rect x="-3" y="-12" width="6" height="24" rx="2" fill="#facd3d"/>
  </g>
  
  <circle cx="50" cy="220" r="22.5" fill="none" stroke="#f15c61" stroke-width="8"/>
  
  <rect x="175" y="185" width="35" height="35" fill="none" stroke="#43b58f" stroke-width="6" rx="4" transform="rotate(25 192.5 202.5)"/>
  
  <g transform="translate(144, 300) rotate(45)">
    <rect x="-12" y="-3" width="24" height="6" rx="2" fill="#facd3d"/>
    <rect x="-3" y="-12" width="6" height="24" rx="2" fill="#facd3d"/>
  </g>
  
  <circle cx="264" cy="340" r="10" fill="none" stroke="#f15c61" stroke-width="4"/>
  
  <circle cx="120" cy="380" r="25" fill="none" stroke="#f15c61" stroke-width="8"/>
  
  <!-- Right Side Decorative Shapes -->
  <g transform="translate(1140, 60) rotate(20) scale(1.2)">
    <rect x="-12" y="-3" width="24" height="6" rx="2" fill="#facd3d"/>
    <rect x="-3" y="-12" width="6" height="24" rx="2" fill="#facd3d"/>
  </g>
  
  <circle cx="1056" cy="160" r="17.5" fill="none" stroke="#f15c61" stroke-width="6"/>
  
  <rect x="1065" y="305" width="30" height="30" fill="none" stroke="#43b58f" stroke-width="5" rx="4" transform="rotate(-15 1080 320)"/>
  
  <circle cx="960" cy="380" r="35" fill="#c184cd"/>
  
  <g transform="translate(840, 280) rotate(-15) scale(0.9)">
    <rect x="-12" y="-3" width="24" height="6" rx="2" fill="#facd3d"/>
    <rect x="-3" y="-12" width="6" height="24" rx="2" fill="#facd3d"/>
  </g>
  
  <rect x="1139" y="127.5" width="25" height="25" fill="none" stroke="#43b58f" stroke-width="4" rx="4" transform="rotate(10 1151.5 140)"/>
  
  <circle cx="934" cy="220" r="7.5" fill="#c184cd"/>
  
  <!-- Center Content Text -->
  <text x="600" y="175" text-anchor="middle" font-family="'Montserrat', sans-serif" font-size="24" font-weight="700" letter-spacing="3" fill="#f1f5f9">HI, I'M</text>
  
  <text x="600" y="240" text-anchor="middle" font-family="'Montserrat', sans-serif" font-size="72" font-weight="900" letter-spacing="2" fill="#ffffff">SALT05</text>
</svg>
